Coordinates
version=1
nRows=14
nColumns=40
inDegrees=yes

Units are S.I. units (second, meters, Newtons, ...)
If the header above contains a line with 'inDegrees', this indicates whether rotational values are in degrees (yes) or radians (no).

endheader
time	pelvis_tilt	pelvis_list	pelvis_rotation	pelvis_tx	pelvis_ty	pelvis_tz	hip_flexion_r	hip_adduction_r	hip_rotation_r	knee_angle_r	knee_angle_r_beta	ankle_angle_r	subtalar_angle_r	mtp_angle_r	hip_flexion_l	hip_adduction_l	hip_rotation_l	knee_angle_l	knee_angle_l_beta	ankle_angle_l	subtalar_angle_l	mtp_angle_l	lumbar_extension	lumbar_bending	lumbar_rotation	arm_flex_r	arm_add_r	arm_rot_r	elbow_flex_r	pro_sup_r	wrist_flex_r	wrist_dev_r	arm_flex_l	arm_add_l	arm_rot_l	elbow_flex_l	pro_sup_l	wrist_flex_l	wrist_dev_l
     12.15000000	     -4.28057113	      5.22291551	    179.48995789	      0.24773355	      0.75524230	     -0.93656447	     35.00743712	    -37.54982096	    -25.32825844	     57.41302737	      1.00204636	      3.91007455	      0.00000000	      0.00000000	     34.74958437	    -49.68948811	    -13.79740015	     48.96982845	      0.85468474	      0.91697625	      0.00000000	      0.00000000	    -52.25799554	      1.54536698	      1.55655534	     38.40314309	      3.26903132	     27.01461866	      3.32614147	     10.54552733	      0.00000000	      0.00000000	     44.13103040	     -9.15751381	     77.88856852	      6.10969358	     83.45171764	      0.00000000	      0.00000000
     12.15500000	     -4.11423652	      5.26616780	    179.48575813	      0.24725873	      0.75674491	     -0.93658649	     34.82058846	    -37.44566974	    -25.65437436	     57.02569406	      0.99528612	      3.68401209	      0.00000000	      0.00000000	     34.68169088	    -49.69501888	    -14.13067415	     48.79348330	      0.85160694	      0.90118766	      0.00000000	      0.00000000	    -51.82615314	      1.58246813	      1.56586673	     38.17736883	      3.25899710	     27.05578453	      3.27861852	     10.54084550	      0.00000000	      0.00000000	     43.91751248	     -9.15903607	     77.91178239	      6.11314641	     83.45433774	      0.00000000	      0.00000000
     12.16000000	     -3.83397120	      5.47688141	    179.48461231	      0.24719741	      0.75826583	     -0.93638966	     34.67806292	    -37.00144627	    -25.88338205	     56.46245210	      0.98545569	      3.54652234	      0.00000000	      0.00000000	     34.68434763	    -49.68165785	    -14.12806932	     48.17581151	      0.84082653	      0.61840448	      0.00000000	      0.00000000	    -51.31152431	      1.78509491	      1.64132961	     38.14129825	      3.16201600	     27.26459725	      3.33884143	     10.56584443	      0.00000000	      0.00000000	     43.69558896	     -9.13071907	     77.94535368	      6.07844065	     83.42924553	      0.00000000	      0.00000000
     12.16500000	     -3.66093270	      5.54875510	    179.48142825	      0.24695139	      0.75995898	     -0.93627185	     34.47381851	    -36.77276364	    -26.12457021	     55.96157625	      0.97671376	      3.32600311	      0.00000000	      0.00000000	     34.64288923	    -49.68207973	    -14.42538999	     47.96622640	      0.83716858	      0.57410565	      0.00000000	      0.00000000	    -50.91091750	      1.86423716	      1.69295318	     37.84489325	      3.19538524	     27.31685881	      3.27814492	     10.55963103	      0.00000000	      0.00000000	     43.52426294	     -9.10985867	     77.97768187	      6.08825751	     83.42982294	      0.00000000	      0.00000000
     12.17000000	     -3.47535937	      5.63150413	    179.47475288	      0.24658284	      0.76164403	     -0.93597313	     34.23439938	    -36.51604701	    -26.41170794	     55.37865215	      0.96653982	      3.15516189	      0.00000000	      0.00000000	     34.53908592	    -49.68016652	    -14.73906701	     47.69200186	      0.83238246	      0.52035469	      0.00000000	      0.00000000	    -50.48098438	      1.97581357	      1.69406080	     37.65208010	      3.15603730	     27.36464371	      3.24990385	     10.55612078	      0.00000000	      0.00000000	     43.31546883	     -9.09186445	     78.01997208	      6.08870845	     83.43480031	      0.00000000	      0.00000000
     12.17500000	     -3.28957631	      5.75628938	    179.48513251	      0.24614103	      0.76323875	     -0.93586717	     33.99353270	    -36.33923031	    -26.83890379	     54.94140576	      0.95890843	      2.84244705	      0.00000000	      0.00000000	     34.39544408	    -49.67027482	    -14.97517617	     47.20431113	      0.82387065	      0.39314220	      0.00000000	      0.00000000	    -50.02398329	      2.11276734	      1.72543991	     37.48207537	      3.12875681	     27.44270083	      3.25965475	     10.55922169	      0.00000000	      0.00000000	     43.06806894	     -9.09135512	     78.08538938	      6.08079293	     83.43717180	      0.00000000	      0.00000000
     12.18000000	     -3.13401017	      5.87909592	    179.48409575	      0.24553062	      0.76492384	     -0.93592371	     33.69521541	    -36.21750114	    -27.38743678	     54.53306099	      0.95178147	      2.55437121	      0.00000000	      0.00000000	     34.20188272	    -49.67078706	    -15.20241852	     46.76725424	      0.81624257	      0.25977882	      0.00000000	      0.00000000	    -49.59692989	      2.22548950	      1.77753742	     37.19899605	      3.13811009	     27.50377694	      3.24069801	     10.55731646	      0.00000000	      0.00000000	     42.83584755	     -9.09959685	     78.14900252	      6.09142331	     83.43784867	      0.00000000	      0.00000000
     12.18500000	     -2.87963452	      6.04502410	    179.46561880	      0.24578072	      0.76668381	     -0.93583123	     33.57420516	    -35.78885583	    -27.50006656	     53.91944147	      0.94107178	      2.28459162	      0.00000000	      0.00000000	     34.17974364	    -49.66195800	    -15.35077786	     46.21717190	      0.80664182	      0.06008360	      0.00000000	      0.00000000	    -49.14646352	      2.38406438	      1.86114051	     37.09495472	      3.11933587	     27.61636135	      3.26300634	     10.56369123	      0.00000000	      0.00000000	     42.69417965	     -9.09708142	     78.24630711	      6.12263037	     83.43354704	      0.00000000	      0.00000000
     12.19000000	     -2.70505880	      6.23276845	    179.47369652	      0.24512502	      0.76843514	     -0.93532402	     33.19953016	    -35.49600466	    -28.03306607	     53.32155032	      0.93063662	      2.06519828	      0.00000000	      0.00000000	     33.97736846	    -49.64667833	    -15.49241058	     45.69121628	      0.79746216	     -0.22921340	      0.00000000	      0.00000000	    -48.70366374	      2.63263193	      1.95084922	     36.84104630	      3.01650900	     27.76619001	      3.25910188	     10.56559509	      0.00000000	      0.00000000	     42.39506267	     -9.05896826	     78.36438727	      6.12635597	     83.42177768	      0.00000000	      0.00000000
     12.19500000	     -1.89657048	      6.67229007	    179.50053602	      0.24598732	      0.76947255	     -0.93416006	     33.50940698	    -34.45812546	    -27.87051962	     52.25422303	      0.91200824	      2.02833759	      0.00000000	      0.00000000	     35.10799194	    -49.64559807	    -14.72104027	     45.26303396	      0.78998897	     -0.69970933	      0.00000000	      0.00000000	    -47.72271349	      3.17598989	      2.18214778	     36.41866264	      2.55480821	     30.03132967	      3.38718688	     10.72838296	      0.00000000	      0.00000000	     42.24921341	     -8.83298138	     78.80170952	      6.02095978	     83.21242804	      0.00000000	      0.00000000
     12.20000000	     -1.72462285	      6.73462796	    179.48924975	      0.24557274	      0.77131402	     -0.93401283	     33.24657884	    -34.30370825	    -28.28568728	     51.70297994	      0.90238723	      1.68322924	      0.00000000	      0.00000000	     34.97432671	    -49.64703077	    -15.13681963	     45.01328309	      0.78563000	     -0.69955146	      0.00000000	      0.00000000	    -47.30139362	      3.26051196	      2.19139521	     36.22758310	      2.52649420	     30.05831936	      3.34450949	     10.72565819	      0.00000000	      0.00000000	     42.03932397	     -8.82970557	     78.81028208	      6.04619797	     83.21719718	      0.00000000	      0.00000000
     12.20500000	     -1.52657128	      6.83704181	    179.46944316	      0.24542592	      0.77317874	     -0.93370895	     33.02820498	    -34.00278220	    -28.52876739	     51.07432638	      0.89141516	      1.43038399	      0.00000000	      0.00000000	     34.87370840	    -49.64330430	    -15.52021594	     44.71094868	      0.78035327	     -0.73058758	      0.00000000	      0.00000000	    -46.87931862	      3.39382309	      2.22973223	     36.09136914	      2.47769850	     30.08799493	      3.31576667	     10.72328929	      0.00000000	      0.00000000	     41.84950270	     -8.80427776	     78.81977120	      6.07145755	     83.22104844	      0.00000000	      0.00000000
     12.21000000	     -1.30138130	      6.95555716	    179.45779254	      0.24527508	      0.77504657	     -0.93333598	     32.81169149	    -33.67579322	    -28.78039983	     50.39926436	      0.87963310	      1.12985264	      0.00000000	      0.00000000	     34.78666491	    -49.63339497	    -15.87403404	     44.31567423	      0.77345443	     -0.80032718	      0.00000000	      0.00000000	    -46.42860918	      3.56224647	      2.27393550	     35.95627077	      2.41664131	     30.12633333	      3.28611111	     10.71986492	      0.00000000	      0.00000000	     41.66298324	     -8.76709578	     78.83074292	      6.08479703	     83.22391579	      0.00000000	      0.00000000
     12.21500000	     -1.07660991	      7.30057412	    179.44806908	      0.24495982	      0.77698596	     -0.93276297	     32.43291502	    -33.08767171	    -29.24144979	     49.60729719	      0.86581067	      0.83594359	      0.00000000	      0.00000000	     34.50835089	    -49.60289351	    -15.71831870	     43.21951506	      0.75432284	     -1.32965450	      0.00000000	      0.00000000	    -45.98736978	      3.93120854	      2.51070456	     35.80682874	      2.27258158	     30.40363232	      3.31460430	     10.73116042	      0.00000000	      0.00000000	     41.39321288	     -8.58477650	     78.74584795	      5.98938106	     83.18486786	      0.00000000	      0.00000000
